<svg width="66" height="155" viewBox="0 0 66 155" fill="none" xmlns="http://www.w3.org/2000/svg">
<path d="M52.0862 154.064C55.7632 153.956 59.4401 153.834 63.0924 153.374C64.1377 153.238 65.3552 152.941 65.7487 151.872C65.7979 151.736 65.8348 151.574 65.7979 151.438C65.7487 151.262 65.6011 151.154 65.4659 151.072C64.605 150.558 63.5598 150.545 62.5759 150.558C51.3976 150.653 40.2192 150.734 29.0286 150.829C27.7005 150.842 26.3723 150.842 25.0441 150.964C23.9988 151.059 22.2157 151.018 21.3795 151.844C20.6786 152.534 20.9491 153.496 21.6747 154.038C22.6339 154.742 24.1956 154.416 25.2778 154.416C30.9838 154.43 36.6899 154.39 42.3959 154.294C45.6301 154.227 48.8643 154.16 52.0862 154.064Z" fill="url(#paint0_linear_8_83)"/>
<path opacity="0.22" d="M52.092 154.064C55.769 153.956 59.4458 153.834 63.0981 153.374C64.1434 153.238 65.3609 152.941 65.7544 151.871C65.8036 151.736 65.8405 151.573 65.8036 151.438C65.7544 151.262 65.6069 151.154 65.4716 151.072C64.6108 150.558 63.5655 150.545 62.5816 150.558C51.4033 150.653 40.225 150.734 29.0343 150.829C27.7062 150.842 26.378 150.842 25.0499 150.964C24.0046 151.059 22.2215 151.018 21.3853 151.844C20.6843 152.534 20.9549 153.496 21.6804 154.037C22.6396 154.741 24.2014 154.416 25.2835 154.416C30.9896 154.43 36.6956 154.389 42.4016 154.294C45.6359 154.227 48.8701 154.159 52.092 154.064Z" fill="url(#paint1_linear_8_83)"/>
<path d="M32.2549 6.47674C33.1033 7.58683 33.5092 9.04886 33.6075 10.4975C33.7059 11.946 33.5215 13.3945 33.3124 14.8295C32.6237 19.4052 31.6523 23.9268 30.484 28.3807C30.4102 28.6514 30.3487 28.9222 30.3979 29.193C30.4471 29.4637 30.6808 29.7074 30.9267 29.6668C31.0251 29.6532 31.1112 29.5856 31.1972 29.5314C32.7836 28.3808 33.9519 26.6072 34.7512 24.7119C35.5628 22.8167 36.0548 20.7725 36.5589 18.7554C37.0017 17.0091 37.4444 15.2492 37.6165 13.4351C37.8871 10.4027 37.2844 7.23486 35.6735 4.75747C34.0625 2.28008 31.4186 0.574341 28.6517 0.574341C28.086 0.574341 27.508 0.655578 27.0284 0.966946C26.5488 1.29185 26.1922 1.90102 26.2782 2.51021C26.475 3.93167 27.9999 3.74213 28.9222 4.06704C30.1274 4.50024 31.4555 5.42081 32.2549 6.47674Z" fill="#EDDDB2"/>
<path d="M29.4009 75.2208L28.0236 72.554C26.4373 72.7029 24.8631 72.933 23.3014 73.2309C22.0225 73.4745 20.6328 73.8535 19.8458 74.9907C19.108 76.0602 19.1079 77.5223 19.1448 78.8625C19.3785 88.731 19.7474 98.6002 20.2393 108.456C20.6943 117.485 22.5389 123.726 23.2153 132.742C23.4858 136.249 23.7071 135.653 24.2975 142.137C24.3466 142.639 24.2975 142.354 24.4942 142.639C24.6049 142.571 24.7279 142.517 24.8878 142.503C25.4165 142.463 25.3304 142.991 25.8593 142.95C25.9822 142.937 26.0806 142.963 26.179 142.991C26.4126 142.341 26.5602 141.488 26.6094 140.621C27.7038 122.9 25.9208 110.703 29.032 93.2398C30.0896 87.2561 31.3562 80.9205 29.4009 75.2208Z" fill="#FFC3B1"/>
<path d="M46.4799 123.13C47.8941 130.969 48.8286 134.475 50.5995 142.233C49.6157 142.246 49.8739 141.813 48.9025 141.813C47.23 137.427 47.0209 136.885 45.6682 132.377C44.709 129.168 43.59 126.042 42.4709 122.9C39.3351 114.128 34.6128 106.019 31.477 97.2471C30.0874 93.3616 28.6854 89.4624 26.8408 85.8207C24.8486 81.9223 22.34 76.3041 27.0991 73.5424C29.7799 71.9856 33.7152 71.9314 36.0024 74.287C38.6095 76.9675 39.0522 81.76 39.704 85.3605C40.7739 91.3038 41.8437 97.2471 42.9136 103.19C44.0818 109.823 45.2748 116.484 46.4799 123.13Z" fill="#FFC3B1"/>
<path d="M50.3175 141.339C50.5266 141.366 50.7479 141.407 50.9078 141.569C51.0308 141.691 51.0923 141.881 51.1537 142.043C51.6211 143.465 52.0391 144.899 52.408 146.361C52.5925 147.065 52.7647 147.797 53.0967 148.433C53.7854 149.773 55.0889 150.612 56.4417 151.005C57.5115 151.303 58.6183 151.357 59.7127 151.357C60.0571 151.357 60.4752 151.262 60.6966 151.614C60.9302 151.993 60.7704 152.71 60.549 153.049C60.1801 153.631 59.4053 153.658 58.7659 153.604C56.9336 153.455 55.1135 153.144 53.2935 152.832C52.8631 152.765 52.4204 152.67 52.0884 152.386C51.9162 152.237 51.7809 152.034 51.6579 151.831C51.1783 151.086 50.711 150.314 50.2683 149.543C50.256 150.558 50.1945 151.587 50.0716 152.589C49.8871 152.548 49.7027 152.589 49.5428 152.697C49.2231 148.92 48.7803 145.157 48.2024 141.407C48.891 141.271 49.6043 141.257 50.3175 141.339Z" fill="#662E2A"/>
<path d="M22.8195 148.636C23.0532 147.972 23.1761 147.282 23.2991 146.591C23.6434 144.751 23.9755 142.895 24.3198 141.055C24.8732 141.123 25.4143 141.19 25.9676 141.271C26.066 141.285 26.1767 141.299 26.2628 141.353C26.4842 141.488 26.521 141.813 26.5457 142.083C26.7547 145.183 26.8285 148.284 26.767 151.384C26.7547 151.804 26.7424 152.237 26.558 152.589C26.435 152.819 26.2014 153.008 25.9554 153.049C24.8117 153.672 23.3729 153.631 22.2784 152.873C22.1677 152.792 22.0571 152.71 21.9833 152.602C21.8972 152.48 21.8603 152.318 21.848 152.156C21.6758 150.924 22.4137 149.786 22.8195 148.636Z" fill="#662E2A"/>
<path d="M40.6169 29.2335C41.2933 30.5467 41.5884 32.0629 42.1541 33.4437C42.9411 35.3796 44.2201 37.0176 45.0932 38.8994C46.5566 42.0401 46.9132 45.8577 49.0653 48.4569C49.8277 49.3775 50.7746 50.095 51.4018 51.1239C52.029 52.1527 52.2256 53.669 51.4263 54.5489C50.6762 55.3747 49.3604 55.2257 48.5118 54.5489C47.6634 53.872 47.1346 52.789 46.6426 51.7601C45.5112 49.3504 44.3799 46.9408 43.2363 44.5446C42.4862 42.9472 41.7114 41.3227 40.5923 40.0095C40.1742 39.5086 39.6947 39.0618 39.3257 38.5339C38.7477 37.7081 38.428 36.6928 37.9606 35.7992C36.362 32.7397 33.509 30.4925 34.8125 26.5124C36.116 22.4646 39.6577 27.3383 40.6169 29.2335Z" fill="#FFC3B1"/>
<path d="M56.6152 29.8022C53.9958 27.9341 50.8968 27.0812 47.8594 26.2554C47.2814 26.1065 46.6788 25.944 46.1131 26.12L44.6128 27.7445L39.0667 40.1992C38.3166 41.8508 37.8738 43.6513 37.4312 45.4518C36.5949 48.8362 35.771 52.2342 34.9348 55.6186C34.8487 55.9706 34.7749 56.3632 34.9593 56.661C35.0946 56.8776 35.3406 56.9724 35.562 57.0536C38.87 58.2719 42.178 59.4768 45.486 60.6952C45.7442 60.79 46.0271 60.8848 46.273 60.7494C46.4451 60.6547 46.5558 60.4651 46.6542 60.2756C50.86 52.6132 54.7951 44.7614 58.4351 36.7471C58.8286 35.8672 59.2345 34.9466 59.2345 33.9583C59.2345 32.1849 57.9556 30.7635 56.6152 29.8022Z" fill="#736357"/>
<path d="M33.2976 23.9132C33.7772 23.6695 34.3306 23.4665 34.8839 23.5613C35.6217 23.6831 36.0768 24.2787 36.3843 24.8338C38.0567 27.8662 38.9668 29.7479 38.1797 33.024C37.3927 36.3002 38.8191 39.0483 38.069 42.3244C37.5279 44.6529 37.3189 47.022 36.5688 49.3098C36.4949 49.54 36.4088 49.7701 36.1998 49.9326C35.9784 50.095 35.6587 50.1492 35.3635 50.1898C31.7973 50.6501 28.1573 50.799 24.5541 50.623C24.0499 50.5959 23.5088 50.5553 23.1399 50.271C22.7833 50.0138 22.6603 49.5942 22.562 49.2151C21.0371 43.272 19.4998 37.329 17.9749 31.3725C17.6921 30.2894 17.4216 29.1793 17.606 28.0963C17.7905 26.9998 18.5283 25.9032 19.7581 25.47C21.3076 24.915 23.0661 25.5242 24.7263 25.822C30.4938 26.8509 28.9443 26.0792 33.2976 23.9132Z" fill="#FF8FA0"/>
<path d="M23.7943 5.27204C22.2939 7.19439 21.8635 9.73948 21.7774 12.1763C21.7037 14.0986 21.8266 16.0345 22.1218 17.9433C22.4169 19.825 22.9334 21.7609 24.1386 23.2365C25.3436 24.7256 27.385 25.6598 29.2051 25.0776C31.2833 24.4143 32.3533 22.167 33.1034 20.1093C34.1856 17.1445 35.1325 14.0038 34.7758 10.8631C34.4315 7.88482 32.7221 5.69169 30.5086 3.8235C28.418 2.05007 25.3314 3.29554 23.7943 5.27204Z" fill="#FFC3B1"/>
<path d="M24.113 9.56321C23.08 12.2302 23.0308 15.2219 22.5636 18.0784C21.3953 25.294 17.6199 31.6973 15.9229 38.7775C13.9184 47.1032 14.8776 55.9568 16.4886 64.3907C15.4925 65.0947 14.189 64.6209 13.0821 64.147C11.3359 63.3754 9.60204 62.6038 7.85575 61.8457C6.40468 61.2095 4.94131 60.5596 3.73616 59.463C1.10451 57.0804 0.243639 52.9514 0.686347 49.2286C1.14135 45.5193 2.70316 42.0942 4.25263 38.7504C8.83959 28.8274 13.4265 18.9042 18.0258 8.98108C19.1079 6.65262 20.227 4.25648 22.0839 2.61842C23.9285 0.980363 26.72 0.317027 28.6876 1.7791C31.1594 3.60668 29.9911 4.24294 28.1957 5.19057C26.3511 6.16528 24.9492 7.39723 24.113 9.56321Z" fill="#EDDDB2"/>
<path d="M48.3776 54.6165C48.5621 55.3069 48.8449 56.0379 49.4229 56.3628C50.2468 56.8502 51.2799 56.2816 51.9316 55.537C53.4442 53.8313 53.6163 50.4062 51.2552 49.3368C48.3653 48.0371 47.8612 52.6941 48.3776 54.6165Z" fill="#FFC3B1"/>
<path d="M36.4245 47.9292C36.7934 47.8886 37.2239 47.8751 37.4698 48.1865C37.6297 48.3895 37.6666 48.6873 37.6911 48.9581C38.0724 53.5608 37.9125 58.2043 37.9372 62.8341C37.9863 72.8249 38.9455 82.9105 42.0076 92.3195C42.3396 93.3617 42.7085 94.5121 42.315 95.5139C41.9707 96.4076 41.1345 96.9081 40.3352 97.3416C33.1903 101.132 25.0494 102.649 17.1544 101.619C15.6418 101.43 14.1293 101.132 12.715 100.537C12.1248 100.293 11.5345 99.954 11.1779 99.3857C10.9074 98.953 10.809 98.4113 10.7352 97.8833C10.3909 95.0263 10.9565 92.1435 11.5468 89.3277C14.2276 76.629 17.3266 64.0526 20.4133 51.4761C20.6715 50.4066 20.942 48.0105 21.975 47.5908C22.9957 47.1711 25.3077 47.9698 26.4268 48.0511C29.7716 48.2677 33.1042 48.2271 36.4245 47.9292Z" fill="#F2F2F2"/>
<path d="M24.6819 17.1579C25.0016 17.6317 25.1246 18.2274 25.2722 18.7959C25.5058 19.6894 25.8009 20.5694 26.1575 21.4223C26.6126 22.4782 27.166 23.656 26.8093 24.7525C26.6372 25.2805 26.256 25.7137 25.8501 26.0522C25.432 26.4042 24.9278 26.7155 24.4113 26.6613C23.5874 26.5801 23.0463 25.7137 22.6282 24.9421C22.0625 23.8861 21.4968 22.8166 20.9312 21.7472C20.1687 20.3122 19.6522 18.4575 20.9558 17.1579C21.9519 16.1697 23.8211 15.8583 24.6819 17.1579Z" fill="#F2F2F2"/>
<path d="M22.2433 21.4493C22.4154 21.165 22.7474 21.0567 23.0548 20.989C23.4484 20.9078 23.8911 20.8672 24.2231 21.1108C24.4691 21.2868 24.6166 21.5712 24.7519 21.8554C25.4037 23.1957 25.994 24.5765 26.4982 25.9979C26.7811 26.7831 27.0269 27.6225 26.8425 28.4347C26.6458 29.247 25.8218 29.9239 25.1209 29.5719C24.8749 29.4501 24.6905 29.2335 24.5183 29.0169C23.6452 27.961 22.3416 26.8102 22.1448 25.321C22.0342 24.4682 21.8621 22.1127 22.2433 21.4493Z" fill="#FFC3B1"/>
<path d="M24.0642 32.9836C22.982 36.8553 21.654 40.6323 20.0799 44.3011C19.2313 46.264 18.3091 48.2405 18.0385 50.4065C17.9893 50.7855 17.9647 51.1782 18.0877 51.5302C18.309 52.1936 18.9608 52.5455 19.551 52.8162C20.1659 53.114 20.8546 53.3984 21.5064 53.2088C22.3672 52.9381 22.8222 51.9228 23.1173 51.0021C23.8921 48.5519 24.2978 45.9797 24.6914 43.4076C25.5153 37.9925 26.2654 32.5638 26.9664 27.1217C27.0279 26.6614 25.6014 27.2436 25.4908 27.3383C25.048 27.6903 24.8513 28.2453 24.7283 28.814C24.4331 30.1677 24.4577 31.5756 24.0642 32.9836Z" fill="#FFC3B1"/>
<path d="M22.9817 47.8343C23.0063 48.3894 23.0309 48.9715 22.8588 49.4995C22.3669 50.9886 20.6452 51.3812 19.2064 51.5301C18.9605 51.5572 18.7023 51.5707 18.5055 51.4218C18.2841 51.2458 18.2227 50.9074 18.1981 50.596C17.7554 46.6295 17.3249 42.6494 16.8822 38.6829C16.5256 35.4338 14.8531 27.4737 19.2802 26.4313C21.7028 25.8627 21.9734 28.2589 22.084 30.2083C22.2316 32.997 22.3791 35.7993 22.5268 38.5881C22.6743 41.6611 22.8342 44.7477 22.9817 47.8343Z" fill="#FFC3B1"/>
<defs>
<linearGradient id="paint0_linear_8_83" x1="20.9724" y1="152.52" x2="65.8226" y2="152.52" gradientUnits="userSpaceOnUse">
<stop stop-color="white"/>
<stop offset="1"/>
</linearGradient>
<linearGradient id="paint1_linear_8_83" x1="20.9781" y1="152.52" x2="65.8283" y2="152.52" gradientUnits="userSpaceOnUse">
<stop/>
<stop offset="1"/>
</linearGradient>
</defs>
</svg>
